<svg width="334" height="82" viewBox="0 0 334 82" fill="none" xmlns="http://www.w3.org/2000/svg">
<g filter="url(#filter0_d_204_4005)">
<g filter="url(#filter1_d_204_4005)">
<rect x="4" y="4" width="326" height="74" rx="20" fill="#2A3647" shape-rendering="crispEdges"/>
<path d="M35.4659 35.017V33.4545H46.375V35.017H41.8011V48H40.0398V35.017H35.4659ZM50.592 48.2557C49.9007 48.2557 49.2733 48.1255 48.7099 47.8651C48.1464 47.5999 47.699 47.2188 47.3675 46.7216C47.0361 46.2197 46.8704 45.6136 46.8704 44.9034C46.8704 44.2784 46.9935 43.7718 47.2397 43.3835C47.4859 42.9905 47.815 42.6828 48.2269 42.4602C48.6388 42.2377 49.0934 42.072 49.5906 41.9631C50.0924 41.8494 50.5967 41.7595 51.1033 41.6932C51.7662 41.608 52.3036 41.544 52.7156 41.5014C53.1322 41.4541 53.4353 41.3759 53.6246 41.267C53.8188 41.1581 53.9158 40.9687 53.9158 40.6989V40.642C53.9158 39.9413 53.7241 39.3968 53.3406 39.0085C52.9618 38.6203 52.3865 38.4261 51.6147 38.4261C50.8145 38.4261 50.1871 38.6013 49.7326 38.9517C49.2781 39.3021 48.9585 39.6761 48.7738 40.0739L47.1829 39.5057C47.467 38.8428 47.8458 38.3267 48.3192 37.9574C48.7975 37.5833 49.3183 37.3229 49.8817 37.1761C50.4499 37.0246 51.0086 36.9489 51.5579 36.9489C51.9083 36.9489 52.3107 36.9915 52.7653 37.0767C53.2246 37.1572 53.6673 37.3253 54.0934 37.581C54.5243 37.8366 54.8817 38.2225 55.1658 38.7386C55.4499 39.2547 55.592 39.946 55.592 40.8125V48H53.9158V46.5227H53.8306C53.717 46.7595 53.5276 47.0128 53.2624 47.2827C52.9973 47.5526 52.6445 47.7822 52.2042 47.9716C51.7638 48.161 51.2264 48.2557 50.592 48.2557ZM50.8477 46.75C51.5105 46.75 52.0692 46.6198 52.5238 46.3594C52.9831 46.099 53.3287 45.7628 53.5607 45.3509C53.7975 44.9389 53.9158 44.5057 53.9158 44.0511V42.517C53.8448 42.6023 53.6886 42.6804 53.4471 42.7514C53.2103 42.8177 52.9357 42.8769 52.6232 42.929C52.3155 42.9763 52.0148 43.0189 51.7212 43.0568C51.4324 43.09 51.198 43.1184 51.0181 43.142C50.5825 43.1989 50.1753 43.2912 49.7965 43.419C49.4225 43.5421 49.1194 43.7292 48.8874 43.9801C48.6602 44.2263 48.5465 44.5625 48.5465 44.9886C48.5465 45.571 48.762 46.0114 49.1928 46.3097C49.6284 46.6032 50.18 46.75 50.8477 46.75ZM66.3786 39.5341L64.8729 39.9602C64.7782 39.7093 64.6385 39.4654 64.4538 39.2287C64.2739 38.9872 64.0277 38.7884 63.7152 38.6321C63.4027 38.4759 63.0026 38.3977 62.5149 38.3977C61.8473 38.3977 61.291 38.5516 60.8459 38.8594C60.4055 39.1624 60.1854 39.5483 60.1854 40.017C60.1854 40.4337 60.3369 40.7628 60.6399 41.0043C60.9429 41.2457 61.4164 41.447 62.0604 41.608L63.6797 42.0057C64.6551 42.2424 65.3819 42.6046 65.8601 43.0923C66.3383 43.5753 66.5774 44.1979 66.5774 44.9602C66.5774 45.5852 66.3975 46.1439 66.0376 46.6364C65.6825 47.1288 65.1854 47.517 64.5462 47.8011C63.907 48.0852 63.1636 48.2273 62.3161 48.2273C61.2034 48.2273 60.2824 47.9858 59.5533 47.5028C58.8241 47.0199 58.3625 46.3144 58.1683 45.3864L59.7592 44.9886C59.9107 45.5758 60.1972 46.0161 60.6186 46.3097C61.0447 46.6032 61.6011 46.75 62.2876 46.75C63.0689 46.75 63.6892 46.5843 64.1484 46.2528C64.6125 45.9167 64.8445 45.5142 64.8445 45.0455C64.8445 44.6667 64.7119 44.3494 64.4467 44.0938C64.1816 43.8333 63.7744 43.6392 63.2251 43.5114L61.407 43.0852C60.4079 42.8485 59.674 42.4815 59.2053 41.9844C58.7412 41.4825 58.5092 40.8551 58.5092 40.1023C58.5092 39.4867 58.6821 38.9422 59.0277 38.4688C59.3781 37.9953 59.8539 37.6236 60.4553 37.3537C61.0613 37.0838 61.7479 36.9489 62.5149 36.9489C63.5945 36.9489 64.442 37.1856 65.0575 37.6591C65.6778 38.1326 66.1181 38.7576 66.3786 39.5341ZM70.663 44.0227L70.6346 41.9489H70.9755L75.7482 37.0909H77.8221L72.7369 42.233H72.5948L70.663 44.0227ZM69.1005 48V33.4545H70.7766V48H69.1005ZM76.0323 48L71.771 42.6023L72.9641 41.4375L78.163 48H76.0323ZM88.8146 48.2557C88.1233 48.2557 87.496 48.1255 86.9325 47.8651C86.3691 47.5999 85.9216 47.2188 85.5902 46.7216C85.2588 46.2197 85.093 45.6136 85.093 44.9034C85.093 44.2784 85.2161 43.7718 85.4624 43.3835C85.7086 42.9905 86.0376 42.6828 86.4496 42.4602C86.8615 42.2377 87.3161 42.072 87.8132 41.9631C88.3151 41.8494 88.8194 41.7595 89.326 41.6932C89.9889 41.608 90.5263 41.544 90.9382 41.5014C91.3549 41.4541 91.6579 41.3759 91.8473 41.267C92.0414 41.1581 92.1385 40.9687 92.1385 40.6989V40.642C92.1385 39.9413 91.9467 39.3968 91.5632 39.0085C91.1844 38.6203 90.6091 38.4261 89.8374 38.4261C89.0372 38.4261 88.4098 38.6013 87.9553 38.9517C87.5007 39.3021 87.1811 39.6761 86.9964 40.0739L85.4055 39.5057C85.6896 38.8428 86.0684 38.3267 86.5419 37.9574C87.0201 37.5833 87.541 37.3229 88.1044 37.1761C88.6726 37.0246 89.2313 36.9489 89.7805 36.9489C90.1309 36.9489 90.5334 36.9915 90.9879 37.0767C91.4472 37.1572 91.8899 37.3253 92.3161 37.581C92.7469 37.8366 93.1044 38.2225 93.3885 38.7386C93.6726 39.2547 93.8146 39.946 93.8146 40.8125V48H92.1385V46.5227H92.0533C91.9396 46.7595 91.7502 47.0128 91.4851 47.2827C91.2199 47.5526 90.8672 47.7822 90.4268 47.9716C89.9865 48.161 89.4491 48.2557 88.8146 48.2557ZM89.0703 46.75C89.7332 46.75 90.2919 46.6198 90.7464 46.3594C91.2057 46.099 91.5514 45.7628 91.7834 45.3509C92.0201 44.9389 92.1385 44.5057 92.1385 44.0511V42.517C92.0675 42.6023 91.9112 42.6804 91.6697 42.7514C91.433 42.8177 91.1584 42.8769 90.8459 42.929C90.5381 42.9763 90.2375 43.0189 89.9439 43.0568C89.6551 43.09 89.4207 43.1184 89.2408 43.142C88.8052 43.1989 88.398 43.2912 88.0192 43.419C87.6451 43.5421 87.3421 43.7292 87.1101 43.9801C86.8828 44.2263 86.7692 44.5625 86.7692 44.9886C86.7692 45.571 86.9846 46.0114 87.4155 46.3097C87.8511 46.6032 88.4027 46.75 89.0703 46.75ZM100.993 48.2273C100.084 48.2273 99.2816 47.9976 98.5856 47.5384C97.8896 47.0743 97.3451 46.4209 96.9521 45.5781C96.5591 44.7306 96.3626 43.7292 96.3626 42.5739C96.3626 41.428 96.5591 40.4337 96.9521 39.5909C97.3451 38.7481 97.8919 38.0971 98.5927 37.6378C99.2934 37.1785 100.103 36.9489 101.022 36.9489C101.732 36.9489 102.293 37.0672 102.705 37.304C103.122 37.536 103.439 37.8011 103.657 38.0994C103.879 38.393 104.052 38.6345 104.175 38.8239H104.317V33.4545H105.993V48H104.374V46.3239H104.175C104.052 46.5227 103.877 46.7737 103.65 47.0767C103.422 47.375 103.098 47.6425 102.676 47.8793C102.255 48.1113 101.694 48.2273 100.993 48.2273ZM101.221 46.7216C101.893 46.7216 102.461 46.5464 102.925 46.196C103.389 45.8409 103.742 45.3509 103.983 44.7259C104.225 44.0961 104.346 43.3693 104.346 42.5455C104.346 41.7311 104.227 41.0185 103.99 40.4077C103.754 39.7921 103.403 39.3139 102.939 38.973C102.475 38.6274 101.902 38.4545 101.221 38.4545C100.51 38.4545 99.9184 38.6368 99.445 39.0014C98.9762 39.3613 98.6235 39.8513 98.3867 40.4716C98.1547 41.0871 98.0387 41.7784 98.0387 42.5455C98.0387 43.322 98.1571 44.0275 98.3938 44.6619C98.6353 45.2917 98.9904 45.7936 99.4592 46.1676C99.9326 46.5369 100.52 46.7216 101.221 46.7216ZM113.415 48.2273C112.506 48.2273 111.703 47.9976 111.007 47.5384C110.311 47.0743 109.767 46.4209 109.374 45.5781C108.981 44.7306 108.784 43.7292 108.784 42.5739C108.784 41.428 108.981 40.4337 109.374 39.5909C109.767 38.7481 110.314 38.0971 111.015 37.6378C111.715 37.1785 112.525 36.9489 113.444 36.9489C114.154 36.9489 114.715 37.0672 115.127 37.304C115.543 37.536 115.861 37.8011 116.078 38.0994C116.301 38.393 116.474 38.6345 116.597 38.8239H116.739V33.4545H118.415V48H116.796V46.3239H116.597C116.474 46.5227 116.299 46.7737 116.071 47.0767C115.844 47.375 115.52 47.6425 115.098 47.8793C114.677 48.1113 114.116 48.2273 113.415 48.2273ZM113.642 46.7216C114.315 46.7216 114.883 46.5464 115.347 46.196C115.811 45.8409 116.164 45.3509 116.405 44.7259C116.647 44.0961 116.767 43.3693 116.767 42.5455C116.767 41.7311 116.649 41.0185 116.412 40.4077C116.176 39.7921 115.825 39.3139 115.361 38.973C114.897 38.6274 114.324 38.4545 113.642 38.4545C112.932 38.4545 112.34 38.6368 111.867 39.0014C111.398 39.3613 111.045 39.8513 110.809 40.4716C110.577 41.0871 110.461 41.7784 110.461 42.5455C110.461 43.322 110.579 44.0275 110.816 44.6619C111.057 45.2917 111.412 45.7936 111.881 46.1676C112.355 46.5369 112.942 46.7216 113.642 46.7216ZM126.292 48.2273C125.24 48.2273 124.334 47.9953 123.571 47.5312C122.814 47.0625 122.229 46.4091 121.817 45.571C121.41 44.7282 121.206 43.7481 121.206 42.6307C121.206 41.5133 121.41 40.5284 121.817 39.6761C122.229 38.8191 122.802 38.1515 123.536 37.6733C124.275 37.1903 125.136 36.9489 126.121 36.9489C126.689 36.9489 127.25 37.0436 127.804 37.233C128.358 37.4223 128.863 37.7301 129.317 38.1562C129.772 38.5777 130.134 39.1364 130.404 39.8324C130.674 40.5284 130.809 41.3854 130.809 42.4034V43.1136H122.4V41.6648H129.104C129.104 41.0492 128.981 40.5 128.735 40.017C128.493 39.5341 128.148 39.1529 127.698 38.8736C127.253 38.5942 126.727 38.4545 126.121 38.4545C125.453 38.4545 124.876 38.6203 124.388 38.9517C123.905 39.2784 123.533 39.7045 123.273 40.2301C123.013 40.7557 122.882 41.3191 122.882 41.9205V42.8864C122.882 43.7102 123.025 44.4086 123.309 44.9815C123.597 45.5497 123.998 45.983 124.509 46.2812C125.02 46.5748 125.614 46.7216 126.292 46.7216C126.732 46.7216 127.13 46.66 127.485 46.5369C127.845 46.4091 128.155 46.2197 128.415 45.9688C128.676 45.7131 128.877 45.3958 129.019 45.017L130.638 45.4716C130.468 46.0208 130.181 46.5038 129.779 46.9205C129.376 47.3324 128.879 47.6544 128.287 47.8864C127.695 48.1136 127.03 48.2273 126.292 48.2273ZM137.478 48.2273C136.569 48.2273 135.766 47.9976 135.07 47.5384C134.374 47.0743 133.829 46.4209 133.436 45.5781C133.043 44.7306 132.847 43.7292 132.847 42.5739C132.847 41.428 133.043 40.4337 133.436 39.5909C133.829 38.7481 134.376 38.0971 135.077 37.6378C135.778 37.1785 136.587 36.9489 137.506 36.9489C138.216 36.9489 138.777 37.0672 139.189 37.304C139.606 37.536 139.923 37.8011 140.141 38.0994C140.364 38.393 140.536 38.6345 140.659 38.8239H140.801V33.4545H142.478V48H140.858V46.3239H140.659C140.536 46.5227 140.361 46.7737 140.134 47.0767C139.907 47.375 139.582 47.6425 139.161 47.8793C138.739 48.1113 138.178 48.2273 137.478 48.2273ZM137.705 46.7216C138.377 46.7216 138.945 46.5464 139.409 46.196C139.873 45.8409 140.226 45.3509 140.468 44.7259C140.709 44.0961 140.83 43.3693 140.83 42.5455C140.83 41.7311 140.712 41.0185 140.475 40.4077C140.238 39.7921 139.888 39.3139 139.424 38.973C138.96 38.6274 138.387 38.4545 137.705 38.4545C136.995 38.4545 136.403 38.6368 135.929 39.0014C135.461 39.3613 135.108 39.8513 134.871 40.4716C134.639 41.0871 134.523 41.7784 134.523 42.5455C134.523 43.322 134.641 44.0275 134.878 44.6619C135.12 45.2917 135.475 45.7936 135.944 46.1676C136.417 46.5369 137.004 46.7216 137.705 46.7216ZM156.15 37.0909V38.5114H150.496V37.0909H156.15ZM152.144 34.4773H153.82V44.875C153.82 45.3485 153.889 45.7036 154.026 45.9403C154.168 46.1723 154.348 46.3286 154.566 46.4091C154.788 46.4848 155.023 46.5227 155.269 46.5227C155.453 46.5227 155.605 46.5133 155.723 46.4943C155.842 46.4706 155.936 46.4517 156.007 46.4375L156.348 47.9432C156.235 47.9858 156.076 48.0284 155.873 48.071C155.669 48.1184 155.411 48.142 155.098 48.142C154.625 48.142 154.161 48.0402 153.706 47.8366C153.257 47.633 152.882 47.3229 152.584 46.9062C152.291 46.4896 152.144 45.964 152.144 45.3295V34.4773ZM162.985 48.2273C162.001 48.2273 161.136 47.9929 160.393 47.5241C159.654 47.0554 159.077 46.3996 158.66 45.5568C158.248 44.714 158.042 43.7292 158.042 42.6023C158.042 41.4659 158.248 40.474 158.66 39.6264C159.077 38.7789 159.654 38.1207 160.393 37.652C161.136 37.1832 162.001 36.9489 162.985 36.9489C163.97 36.9489 164.832 37.1832 165.571 37.652C166.314 38.1207 166.892 38.7789 167.304 39.6264C167.72 40.474 167.929 41.4659 167.929 42.6023C167.929 43.7292 167.72 44.714 167.304 45.5568C166.892 46.3996 166.314 47.0554 165.571 47.5241C164.832 47.9929 163.97 48.2273 162.985 48.2273ZM162.985 46.7216C163.734 46.7216 164.349 46.5298 164.832 46.1463C165.315 45.7628 165.672 45.2585 165.904 44.6335C166.136 44.0085 166.252 43.3314 166.252 42.6023C166.252 41.8731 166.136 41.1937 165.904 40.5639C165.672 39.9342 165.315 39.4252 164.832 39.0369C164.349 38.6487 163.734 38.4545 162.985 38.4545C162.237 38.4545 161.622 38.6487 161.139 39.0369C160.656 39.4252 160.298 39.9342 160.066 40.5639C159.834 41.1937 159.718 41.8731 159.718 42.6023C159.718 43.3314 159.834 44.0085 160.066 44.6335C160.298 45.2585 160.656 45.7628 161.139 46.1463C161.622 46.5298 162.237 46.7216 162.985 46.7216ZM176.339 48V33.4545H178.016V38.8239H178.158C178.281 38.6345 178.451 38.393 178.669 38.0994C178.892 37.8011 179.209 37.536 179.621 37.304C180.037 37.0672 180.601 36.9489 181.311 36.9489C182.23 36.9489 183.039 37.1785 183.74 37.6378C184.441 38.0971 184.988 38.7481 185.381 39.5909C185.774 40.4337 185.97 41.428 185.97 42.5739C185.97 43.7292 185.774 44.7306 185.381 45.5781C184.988 46.4209 184.443 47.0743 183.747 47.5384C183.051 47.9976 182.249 48.2273 181.339 48.2273C180.639 48.2273 180.078 48.1113 179.656 47.8793C179.235 47.6425 178.911 47.375 178.683 47.0767C178.456 46.7737 178.281 46.5227 178.158 46.3239H177.959V48H176.339ZM177.987 42.5455C177.987 43.3693 178.108 44.0961 178.349 44.7259C178.591 45.3509 178.944 45.8409 179.408 46.196C179.872 46.5464 180.44 46.7216 181.112 46.7216C181.813 46.7216 182.398 46.5369 182.866 46.1676C183.34 45.7936 183.695 45.2917 183.932 44.6619C184.173 44.0275 184.294 43.322 184.294 42.5455C184.294 41.7784 184.176 41.0871 183.939 40.4716C183.707 39.8513 183.354 39.3613 182.881 39.0014C182.412 38.6368 181.822 38.4545 181.112 38.4545C180.43 38.4545 179.857 38.6274 179.393 38.973C178.929 39.3139 178.579 39.7921 178.342 40.4077C178.106 41.0185 177.987 41.7311 177.987 42.5455ZM192.966 48.2273C191.981 48.2273 191.117 47.9929 190.374 47.5241C189.635 47.0554 189.057 46.3996 188.641 45.5568C188.229 44.714 188.023 43.7292 188.023 42.6023C188.023 41.4659 188.229 40.474 188.641 39.6264C189.057 38.7789 189.635 38.1207 190.374 37.652C191.117 37.1832 191.981 36.9489 192.966 36.9489C193.951 36.9489 194.813 37.1832 195.551 37.652C196.295 38.1207 196.872 38.7789 197.284 39.6264C197.701 40.474 197.909 41.4659 197.909 42.6023C197.909 43.7292 197.701 44.714 197.284 45.5568C196.872 46.3996 196.295 47.0554 195.551 47.5241C194.813 47.9929 193.951 48.2273 192.966 48.2273ZM192.966 46.7216C193.714 46.7216 194.33 46.5298 194.812 46.1463C195.295 45.7628 195.653 45.2585 195.885 44.6335C196.117 44.0085 196.233 43.3314 196.233 42.6023C196.233 41.8731 196.117 41.1937 195.885 40.5639C195.653 39.9342 195.295 39.4252 194.812 39.0369C194.33 38.6487 193.714 38.4545 192.966 38.4545C192.218 38.4545 191.602 38.6487 191.119 39.0369C190.636 39.4252 190.279 39.9342 190.047 40.5639C189.815 41.1937 189.699 41.8731 189.699 42.6023C189.699 43.3314 189.815 44.0085 190.047 44.6335C190.279 45.2585 190.636 45.7628 191.119 46.1463C191.602 46.5298 192.218 46.7216 192.966 46.7216ZM203.678 48.2557C202.987 48.2557 202.359 48.1255 201.796 47.8651C201.232 47.5999 200.785 47.2188 200.453 46.7216C200.122 46.2197 199.956 45.6136 199.956 44.9034C199.956 44.2784 200.079 43.7718 200.326 43.3835C200.572 42.9905 200.901 42.6828 201.313 42.4602C201.725 42.2377 202.179 42.072 202.676 41.9631C203.178 41.8494 203.683 41.7595 204.189 41.6932C204.852 41.608 205.39 41.544 205.801 41.5014C206.218 41.4541 206.521 41.3759 206.711 41.267C206.905 41.1581 207.002 40.9687 207.002 40.6989V40.642C207.002 39.9413 206.81 39.3968 206.426 39.0085C206.048 38.6203 205.472 38.4261 204.701 38.4261C203.9 38.4261 203.273 38.6013 202.819 38.9517C202.364 39.3021 202.044 39.6761 201.86 40.0739L200.269 39.5057C200.553 38.8428 200.932 38.3267 201.405 37.9574C201.883 37.5833 202.404 37.3229 202.968 37.1761C203.536 37.0246 204.095 36.9489 204.644 36.9489C204.994 36.9489 205.397 36.9915 205.851 37.0767C206.31 37.1572 206.753 37.3253 207.179 37.581C207.61 37.8366 207.968 38.2225 208.252 38.7386C208.536 39.2547 208.678 39.946 208.678 40.8125V48H207.002V46.5227H206.917C206.803 46.7595 206.614 47.0128 206.348 47.2827C206.083 47.5526 205.73 47.7822 205.29 47.9716C204.85 48.161 204.312 48.2557 203.678 48.2557ZM203.934 46.75C204.596 46.75 205.155 46.6198 205.61 46.3594C206.069 46.099 206.415 45.7628 206.647 45.3509C206.883 44.9389 207.002 44.5057 207.002 44.0511V42.517C206.931 42.6023 206.775 42.6804 206.533 42.7514C206.296 42.8177 206.022 42.8769 205.709 42.929C205.401 42.9763 205.101 43.0189 204.807 43.0568C204.518 43.09 204.284 43.1184 204.104 43.142C203.668 43.1989 203.261 43.2912 202.882 43.419C202.508 43.5421 202.205 43.7292 201.973 43.9801C201.746 44.2263 201.632 44.5625 201.632 44.9886C201.632 45.571 201.848 46.0114 202.279 46.3097C202.714 46.6032 203.266 46.75 203.934 46.75ZM211.737 48V37.0909H213.357V38.7386H213.47C213.669 38.1989 214.029 37.7609 214.55 37.4247C215.071 37.0885 215.658 36.9205 216.311 36.9205C216.434 36.9205 216.588 36.9228 216.773 36.9276C216.957 36.9323 217.097 36.9394 217.192 36.9489V38.6534C217.135 38.6392 217.005 38.6179 216.801 38.5895C216.602 38.5563 216.392 38.5398 216.169 38.5398C215.639 38.5398 215.165 38.651 214.749 38.8736C214.337 39.0914 214.01 39.3944 213.768 39.7827C213.532 40.1662 213.413 40.6042 213.413 41.0966V48H211.737ZM222.966 48.2273C222.057 48.2273 221.254 47.9976 220.558 47.5384C219.862 47.0743 219.318 46.4209 218.925 45.5781C218.532 44.7306 218.335 43.7292 218.335 42.5739C218.335 41.428 218.532 40.4337 218.925 39.5909C219.318 38.7481 219.865 38.0971 220.565 37.6378C221.266 37.1785 222.076 36.9489 222.994 36.9489C223.705 36.9489 224.266 37.0672 224.678 37.304C225.094 37.536 225.411 37.8011 225.629 38.0994C225.852 38.393 226.025 38.6345 226.148 38.8239H226.29V33.4545H227.966V48H226.347V46.3239H226.148C226.025 46.5227 225.849 46.7737 225.622 47.0767C225.395 47.375 225.071 47.6425 224.649 47.8793C224.228 48.1113 223.667 48.2273 222.966 48.2273ZM223.193 46.7216C223.866 46.7216 224.434 46.5464 224.898 46.196C225.362 45.8409 225.714 45.3509 225.956 44.7259C226.197 44.0961 226.318 43.3693 226.318 42.5455C226.318 41.7311 226.2 41.0185 225.963 40.4077C225.726 39.7921 225.376 39.3139 224.912 38.973C224.448 38.6274 223.875 38.4545 223.193 38.4545C222.483 38.4545 221.891 38.6368 221.418 39.0014C220.949 39.3613 220.596 39.8513 220.359 40.4716C220.127 41.0871 220.011 41.7784 220.011 42.5455C220.011 43.322 220.13 44.0275 220.366 44.6619C220.608 45.2917 220.963 45.7936 221.432 46.1676C221.905 46.5369 222.492 46.7216 223.193 46.7216Z" fill="white"/>
<path d="M292.454 30.7727L292.454 51.2271C292.454 51.8296 292.214 52.4074 291.788 52.8334C291.362 53.2595 290.784 53.4992 290.182 53.4998L285.636 53.4998C285.034 53.4992 284.456 53.2595 284.03 52.8334C283.604 52.4074 283.364 51.8296 283.364 51.2271L283.364 30.7727C283.364 30.1702 283.604 29.5924 284.03 29.1663C284.456 28.7403 285.034 28.5006 285.636 28.5L290.182 28.5C290.784 28.5006 291.362 28.7403 291.788 29.1663C292.214 29.5924 292.454 30.1701 292.454 30.7727ZM285.636 51.2271L290.182 51.2271L290.182 30.7727L285.636 30.7727L285.636 51.2271ZM285.636 30.7727L285.636 51.2271C285.636 51.8296 285.396 52.4073 284.97 52.8334C284.544 53.2595 283.966 53.4991 283.364 53.4997L278.818 53.4997C278.216 53.4991 277.638 53.2595 277.212 52.8334C276.786 52.4073 276.546 51.8296 276.546 51.227L276.546 30.7727C276.546 30.1701 276.786 29.5924 277.212 29.1663C277.638 28.7402 278.216 28.5006 278.818 28.5L283.364 28.5C283.966 28.5006 284.544 28.7402 284.97 29.1663C285.396 29.5924 285.636 30.1702 285.636 30.7727ZM278.818 51.227L283.364 51.2271L283.364 30.7727L278.818 30.7727L278.818 51.227ZM278.818 30.7727L278.818 51.227C278.818 51.8296 278.578 52.4073 278.152 52.8334C277.726 53.2595 277.148 53.4991 276.546 53.4997L272 53.4997C271.398 53.4991 270.82 53.2595 270.394 52.8334C269.968 52.4073 269.728 51.8296 269.727 51.227L269.727 30.7727C269.728 30.1701 269.968 29.5924 270.394 29.1663C270.82 28.7402 271.398 28.5006 272 28.5L276.546 28.5C277.148 28.5006 277.726 28.7402 278.152 29.1663C278.578 29.5924 278.818 30.1701 278.818 30.7727ZM272 51.227L276.546 51.227L276.546 30.7727L272 30.7727L272 51.227Z" fill="white"/>
<path d="M299.273 30.773L299.273 51.2273C299.272 51.8299 299.032 52.4076 298.606 52.8337C298.18 53.2598 297.602 53.4994 297 53.5L292.454 53.5C291.852 53.4994 291.274 53.2598 290.848 52.8337C290.422 52.4076 290.182 51.8296 290.182 51.2271L290.182 30.7727C290.182 30.1701 290.422 29.5927 290.848 29.1666C291.274 28.7405 291.852 28.5009 292.454 28.5003L297 28.5003C297.602 28.5009 298.18 28.7405 298.606 29.1666C299.032 29.5927 299.272 30.1704 299.273 30.773ZM292.454 51.2271L297 51.2273L297 30.773L292.454 30.7727L292.454 51.2271Z" fill="white"/>
</g>
</g>
<defs>
<filter id="filter0_d_204_4005" x="0" y="0" width="334" height="82" filterUnits="userSpaceOnUse" color-interpolation-filters="sRGB">
<feFlood flood-opacity="0" result="BackgroundImageFix"/>
<feColorMatrix in="SourceAlpha" type="matrix" values="0 0 0 0 0 0 0 0 0 0 0 0 0 0 0 0 0 0 127 0" result="hardAlpha"/>
<feOffset/>
<feGaussianBlur stdDeviation="2"/>
<feColorMatrix type="matrix" values="0 0 0 0 0 0 0 0 0 0 0 0 0 0 0 0 0 0 0.1 0"/>
<feBlend mode="normal" in2="BackgroundImageFix" result="effect1_dropShadow_204_4005"/>
<feBlend mode="normal" in="SourceGraphic" in2="effect1_dropShadow_204_4005" result="shape"/>
</filter>
<filter id="filter1_d_204_4005" x="0" y="0" width="334" height="82" filterUnits="userSpaceOnUse" color-interpolation-filters="sRGB">
<feFlood flood-opacity="0" result="BackgroundImageFix"/>
<feColorMatrix in="SourceAlpha" type="matrix" values="0 0 0 0 0 0 0 0 0 0 0 0 0 0 0 0 0 0 127 0" result="hardAlpha"/>
<feOffset/>
<feGaussianBlur stdDeviation="2"/>
<feComposite in2="hardAlpha" operator="out"/>
<feColorMatrix type="matrix" values="0 0 0 0 0 0 0 0 0 0 0 0 0 0 0 0 0 0 0.15 0"/>
<feBlend mode="normal" in2="BackgroundImageFix" result="effect1_dropShadow_204_4005"/>
<feBlend mode="normal" in="SourceGraphic" in2="effect1_dropShadow_204_4005" result="shape"/>
</filter>
</defs>
</svg>
