<svg width="50" height="60" viewBox="0 0 50 60" fill="none" xmlns="http://www.w3.org/2000/svg">
<g clip-path="url(#clip0_353_2207)">
<path d="M35.119 0H24.2617V12.4912H35.119V0Z" fill="white"/>
<path d="M24.2619 22.6501H35.1192V40.267C35.1689 44.5061 33.9624 48.6643 31.6533 52.2129C29.3732 55.6608 24.9718 59.763 16.8288 59.763C7.95925 59.763 2.78949 55.5685 0 53.2699L6.84846 44.8222C9.57114 47.0453 12.1936 48.8741 16.8706 48.8741C20.4118 48.8741 21.8232 47.4312 22.65 46.1728C23.7741 44.425 24.3555 42.381 24.3204 40.3006L24.2619 22.6501Z" fill="white"/>
<path d="M18.7246 14.7646H7.86725V25.6703H18.7246V14.7646Z" fill="#29ABE2"/>
<path d="M40.8073 54.6458C40.8073 56.9695 39.6297 58.2195 37.9844 58.2195C36.3391 58.2195 35.2617 56.7346 35.2617 54.7632C35.2617 52.7918 36.3725 51.2314 38.0763 51.2314C39.78 51.2314 40.8073 52.7666 40.8073 54.6458ZM36.5228 54.738C36.5228 56.139 37.0824 57.1708 38.0429 57.1708C39.0033 57.1708 39.5462 56.0803 39.5462 54.6542C39.5462 53.4042 39.0451 52.2297 38.0429 52.2297C37.0406 52.2297 36.5228 53.3622 36.5228 54.738Z" fill="white"/>
<path d="M42.9617 51.3323V58.1106H41.759V51.3323H42.9617Z" fill="white"/>
<path d="M44.2645 58.1106V51.3323H45.6008L47.0373 54.1258C47.4071 54.8563 47.7361 55.6068 48.0228 56.3741C47.9477 55.5352 47.9143 54.5704 47.9143 53.4966V51.3323H49.0167V58.1106H47.7723L46.3191 55.2583C45.9343 54.5091 45.5914 53.7389 45.2918 52.9513C45.2918 53.7902 45.3503 54.7382 45.3503 55.9043V58.1022L44.2645 58.1106Z" fill="white"/>
</g>
<defs>
<clipPath id="clip0_353_2207">
<rect width="49.0167" height="59.7631" fill="white"/>
</clipPath>
</defs>
</svg>
